<svg viewBox="0 0 1200 300" xmlns="http://www.w3.org/2000/svg" preserveAspectRatio="xMidYMid slice">
  <g fill="#FFFFFF" opacity="0.9">
    <path d="M120 90 C150 130 170 150 170 175 C170 200 148 218 120 218 C92 218 70 200 70 175 C70 150 90 130 120 90 Z"/>
    <path d="M420 70 C450 110 470 130 470 155 C470 180 448 198 420 198 C392 198 370 180 370 155 C370 130 390 110 420 70 Z"/>
    <path d="M760 100 C790 140 810 160 810 185 C810 210 788 228 760 228 C732 228 710 210 710 185 C710 160 730 140 760 100 Z"/>
    <path d="M1060 75 C1090 115 1110 135 1110 160 C1110 185 1088 203 1060 203 C1032 203 1010 185 1010 160 C1010 135 1030 115 1060 75 Z"/>
  </g>
  <g fill="#E7C878" opacity="0.8">
    <circle cx="260" cy="140" r="10"/>
    <circle cx="600" cy="200" r="14"/>
    <circle cx="900" cy="120" r="9"/>
  </g>
</svg>
