<svg viewBox="0 0 600 400" xmlns="http://www.w3.org/2000/svg" preserveAspectRatio="xMidYMid slice">
  <defs>
    <linearGradient id="bgD" x1="0" y1="0" x2="1" y2="0">
      <stop offset="0%" stop-color="#D9ECC9"/>
      <stop offset="100%" stop-color="#9FCB8B"/>
    </linearGradient>
  </defs>
  <rect width="600" height="400" fill="url(#bgD)"/>
  <g stroke="#3E7A3E" stroke-width="3" opacity="0.4">
    <line x1="0" y1="330" x2="600" y2="330"/>
    <line x1="0" y1="355" x2="600" y2="355"/>
    <line x1="0" y1="380" x2="600" y2="380"/>
  </g>
  <g transform="translate(230,150)">
    <rect x="0" y="70" width="150" height="90" rx="18" fill="#1E4F33"/>
    <rect x="10" y="80" width="130" height="70" rx="12" fill="#2E5E2A"/>
    <circle cx="150" cy="80" r="22" fill="#1E4F33"/>
    <path d="M172 80 L230 45" stroke="#1E4F33" stroke-width="14" stroke-linecap="round"/>
    <circle cx="230" cy="45" r="8" fill="#1E4F33"/>
    <rect x="55" y="20" width="20" height="55" rx="8" fill="#1E4F33"/>
    <path d="M255 30 Q270 40 262 55 M262 55 Q255 65 245 62" stroke="#5FA857" stroke-width="4" fill="none" stroke-linecap="round" opacity="0.8"/>
  </g>
  <g fill="#5FA857" opacity="0.9">
    <ellipse cx="90" cy="300" rx="10" ry="20"/>
    <ellipse cx="500" cy="290" rx="10" ry="22"/>
    <ellipse cx="80" cy="250" rx="8" ry="16"/>
    <ellipse cx="520" cy="245" rx="8" ry="16"/>
  </g>
  <circle cx="500" cy="70" r="30" fill="#E7C878" opacity="0.5"/>
</svg>
