<svg viewBox="0 0 600 400" xmlns="http://www.w3.org/2000/svg" preserveAspectRatio="xMidYMid slice">
  <defs>
    <linearGradient id="bgH" x1="0" y1="0" x2="1" y2="1">
      <stop offset="0%" stop-color="#FBF6EA"/>
      <stop offset="100%" stop-color="#E7C878"/>
    </linearGradient>
  </defs>
  <rect width="600" height="400" fill="url(#bgH)"/>
  <g transform="translate(210,90)">
    <rect x="0" y="20" width="180" height="180" rx="18" fill="#FFFFFF" stroke="#1E4F33" stroke-width="4"/>
    <rect x="0" y="20" width="180" height="44" rx="18" fill="#1E4F33"/>
    <rect x="34" y="0" width="12" height="40" rx="6" fill="#C79A3E"/>
    <rect x="134" y="0" width="12" height="40" rx="6" fill="#C79A3E"/>
    <g fill="#5FA857">
      <rect x="20" y="82" width="26" height="26" rx="6"/>
      <rect x="60" y="82" width="26" height="26" rx="6" fill="#E7C878"/>
      <rect x="100" y="82" width="26" height="26" rx="6"/>
      <rect x="140" y="82" width="26" height="26" rx="6" fill="#E7C878"/>
      <rect x="20" y="122" width="26" height="26" rx="6" fill="#E7C878"/>
      <rect x="60" y="122" width="26" height="26" rx="6"/>
      <rect x="100" y="122" width="26" height="26" rx="6" fill="#7FC96B"/>
      <rect x="140" y="122" width="26" height="26" rx="6"/>
    </g>
    <circle cx="150" cy="150" r="34" fill="#1E4F33"/>
    <path d="M136 150 L147 161 L166 138" stroke="#FFFFFF" stroke-width="6" fill="none" stroke-linecap="round" stroke-linejoin="round"/>
  </g>
</svg>
